<svg width="308" height="305" viewBox="0 0 308 305" fill="none" xmlns="http://www.w3.org/2000/svg">
<path d="M152.561 304.062C123.602 304.062 97.4692 297.882 74.1614 285.521C51.2067 273.161 33.0195 255.504 19.5998 232.549C6.53326 209.594 0 182.755 0 152.031C0 121.66 6.70984 94.9971 20.1295 72.0424C33.5492 48.7346 51.913 30.9005 75.2208 18.5403C98.5287 6.18002 124.662 0 153.62 0C182.578 0 208.711 6.18002 232.019 18.5403C255.327 30.9005 273.691 48.7346 287.11 72.0424C300.53 94.9971 307.24 121.66 307.24 152.031C307.24 182.402 300.354 209.241 286.581 232.549C273.161 255.504 254.621 273.161 230.96 285.521C207.652 297.882 181.519 304.062 152.561 304.062ZM152.561 225.662C169.865 225.662 184.521 219.306 196.528 206.592C208.888 193.879 215.068 175.692 215.068 152.031C215.068 128.37 209.064 110.183 197.057 97.4692C185.403 84.7559 170.924 78.3992 153.62 78.3992C135.963 78.3992 121.307 84.7559 109.653 97.4692C97.999 109.829 92.172 128.017 92.172 152.031C92.172 175.692 97.8224 193.879 109.123 206.592C120.777 219.306 135.256 225.662 152.561 225.662Z" fill="#FF408C"/>
</svg>
