<svg width="1829" height="393" viewBox="0 0 1829 393" fill="none" xmlns="http://www.w3.org/2000/svg">
<path d="M1665.64 101.79C1671.88 91.65 1680.85 83.46 1692.55 77.22C1704.25 70.98 1717.64 67.86 1732.72 67.86C1750.66 67.86 1766.91 72.41 1781.47 81.51C1796.03 90.61 1807.47 103.61 1815.79 120.51C1824.37 137.41 1828.66 157.04 1828.66 179.4C1828.66 201.76 1824.37 221.52 1815.79 238.68C1807.47 255.58 1796.03 268.71 1781.47 278.07C1766.91 287.17 1750.66 291.72 1732.72 291.72C1717.38 291.72 1703.99 288.73 1692.55 282.75C1681.11 276.51 1672.14 268.32 1665.64 258.18V288.6H1598.95V0H1665.64V101.79ZM1760.8 179.4C1760.8 162.76 1756.12 149.76 1746.76 140.4C1737.66 130.78 1726.35 125.97 1712.83 125.97C1699.57 125.97 1688.26 130.78 1678.9 140.4C1669.8 150.02 1665.25 163.15 1665.25 179.79C1665.25 196.43 1669.8 209.56 1678.9 219.18C1688.26 228.8 1699.57 233.61 1712.83 233.61C1726.09 233.61 1737.4 228.8 1746.76 219.18C1756.12 209.3 1760.8 196.04 1760.8 179.4Z" fill="#0A1732"/>
<path d="M1566.65 70.98V288.6H1499.96V258.96C1493.2 268.58 1483.97 276.38 1472.27 282.36C1460.83 288.08 1448.09 290.94 1434.05 290.94C1417.41 290.94 1402.72 287.3 1389.98 280.02C1377.24 272.48 1367.36 261.69 1360.34 247.65C1353.32 233.61 1349.81 217.1 1349.81 198.12V70.98H1416.11V189.15C1416.11 203.71 1419.88 215.02 1427.42 223.08C1434.96 231.14 1445.1 235.17 1457.84 235.17C1470.84 235.17 1481.11 231.14 1488.65 223.08C1496.19 215.02 1499.96 203.71 1499.96 189.15V70.98H1566.65Z" fill="#0A1732"/>
<path d="M1238.34 68.64C1263.3 68.64 1283.32 76.96 1298.4 93.6C1313.48 109.98 1321.02 132.6 1321.02 161.46V288.6H1254.72V170.43C1254.72 155.87 1250.95 144.56 1243.41 136.5C1235.87 128.44 1225.73 124.41 1212.99 124.41C1200.25 124.41 1190.11 128.44 1182.57 136.5C1175.03 144.56 1171.26 155.87 1171.26 170.43V288.6H1104.57V0H1171.26V100.23C1178.02 90.61 1187.25 82.94 1198.95 77.22C1210.65 71.5 1223.78 68.64 1238.34 68.64Z" fill="#0A1732"/>
<path d="M970.908 291.72C949.588 291.72 930.348 287.17 913.188 278.07C896.288 268.97 882.898 255.97 873.018 239.07C863.398 222.17 858.588 202.41 858.588 179.79C858.588 157.43 863.528 137.8 873.408 120.9C883.288 103.74 896.808 90.6101 913.968 81.5101C931.128 72.4101 950.368 67.8601 971.688 67.8601C993.008 67.8601 1012.25 72.4101 1029.41 81.5101C1046.57 90.6101 1060.09 103.74 1069.97 120.9C1079.85 137.8 1084.79 157.43 1084.79 179.79C1084.79 202.15 1079.72 221.91 1069.58 239.07C1059.7 255.97 1046.05 268.97 1028.63 278.07C1011.47 287.17 992.228 291.72 970.908 291.72ZM970.908 234C983.648 234 994.438 229.32 1003.28 219.96C1012.38 210.6 1016.93 197.21 1016.93 179.79C1016.93 162.37 1012.51 148.98 1003.67 139.62C995.088 130.26 984.428 125.58 971.688 125.58C958.688 125.58 947.898 130.26 939.318 139.62C930.738 148.72 926.448 162.11 926.448 179.79C926.448 197.21 930.608 210.6 938.928 219.96C947.508 229.32 958.168 234 970.908 234Z" fill="#FF408C"/>
<path d="M850.301 232.05V288.6H816.371C792.191 288.6 773.341 282.75 759.821 271.05C746.301 259.09 739.541 239.72 739.541 212.94V126.36H713.021V70.9802H739.541V17.9402H806.231V70.9802H849.911V126.36H806.231V213.72C806.231 220.22 807.791 224.9 810.911 227.76C814.031 230.62 819.231 232.05 826.511 232.05H850.301Z" fill="#0A1732"/>
<path d="M614.418 68.6401C639.898 68.6401 660.178 76.9601 675.258 93.6001C690.598 109.98 698.268 132.6 698.268 161.46V288.6H631.968V170.43C631.968 155.87 628.198 144.56 620.658 136.5C613.118 128.44 602.978 124.41 590.238 124.41C577.498 124.41 567.358 128.44 559.818 136.5C552.278 144.56 548.508 155.87 548.508 170.43V288.6H481.818V70.9801H548.508V99.8401C555.268 90.2201 564.368 82.6801 575.808 77.2201C587.248 71.5001 600.118 68.6401 614.418 68.6401Z" fill="#0A1732"/>
<path d="M348.157 291.72C326.837 291.72 307.597 287.17 290.437 278.07C273.537 268.97 260.147 255.97 250.267 239.07C240.647 222.17 235.837 202.41 235.837 179.79C235.837 157.43 240.777 137.8 250.657 120.9C260.537 103.74 274.057 90.6101 291.217 81.5101C308.377 72.4101 327.617 67.8601 348.937 67.8601C370.257 67.8601 389.497 72.4101 406.657 81.5101C423.817 90.6101 437.337 103.74 447.217 120.9C457.097 137.8 462.037 157.43 462.037 179.79C462.037 202.15 456.967 221.91 446.827 239.07C436.947 255.97 423.297 268.97 405.877 278.07C388.717 287.17 369.477 291.72 348.157 291.72ZM348.157 234C360.897 234 371.687 229.32 380.527 219.96C389.627 210.6 394.177 197.21 394.177 179.79C394.177 162.37 389.757 148.98 380.917 139.62C372.337 130.26 361.677 125.58 348.937 125.58C335.937 125.58 325.147 130.26 316.567 139.62C307.987 148.72 303.697 162.11 303.697 179.79C303.697 197.21 307.857 210.6 316.177 219.96C324.757 229.32 335.417 234 348.157 234Z" fill="#0A1732"/>
<path d="M66.69 101.79C73.19 91.6501 82.16 83.4601 93.6 77.2201C105.04 70.9801 118.43 67.8601 133.77 67.8601C151.71 67.8601 167.96 72.4101 182.52 81.5101C197.08 90.6101 208.52 103.61 216.84 120.51C225.42 137.41 229.71 157.04 229.71 179.4C229.71 201.76 225.42 221.52 216.84 238.68C208.52 255.58 197.08 268.71 182.52 278.07C167.96 287.17 151.71 291.72 133.77 291.72C118.69 291.72 105.3 288.6 93.6 282.36C82.16 276.12 73.19 268.06 66.69 258.18V392.34H0V70.9801H66.69V101.79ZM161.85 179.4C161.85 162.76 157.17 149.76 147.81 140.4C138.71 130.78 127.4 125.97 113.88 125.97C100.62 125.97 89.31 130.78 79.95 140.4C70.85 150.02 66.3 163.15 66.3 179.79C66.3 196.43 70.85 209.56 79.95 219.18C89.31 228.8 100.62 233.61 113.88 233.61C127.14 233.61 138.45 228.8 147.81 219.18C157.17 209.3 161.85 196.04 161.85 179.4Z" fill="#0A1732"/>
</svg>
