<svg width="1829" height="393" viewBox="0 0 1829 393" fill="none" xmlns="http://www.w3.org/2000/svg">
<path d="M1665.82 102.19C1672.06 92.0499 1681.03 83.8599 1692.73 77.6199C1704.43 71.3799 1717.82 68.2599 1732.9 68.2599C1750.84 68.2599 1767.09 72.8099 1781.65 81.9099C1796.21 91.0099 1807.65 104.01 1815.97 120.91C1824.55 137.81 1828.84 157.44 1828.84 179.8C1828.84 202.16 1824.55 221.92 1815.97 239.08C1807.65 255.98 1796.21 269.11 1781.65 278.47C1767.09 287.57 1750.84 292.12 1732.9 292.12C1717.56 292.12 1704.17 289.13 1692.73 283.15C1681.29 276.91 1672.32 268.72 1665.82 258.58V289H1599.13V0.399902H1665.82V102.19ZM1760.98 179.8C1760.98 163.16 1756.3 150.16 1746.94 140.8C1737.84 131.18 1726.53 126.37 1713.01 126.37C1699.75 126.37 1688.44 131.18 1679.08 140.8C1669.98 150.42 1665.43 163.55 1665.43 180.19C1665.43 196.83 1669.98 209.96 1679.08 219.58C1688.44 229.2 1699.75 234.01 1713.01 234.01C1726.27 234.01 1737.58 229.2 1746.94 219.58C1756.3 209.7 1760.98 196.44 1760.98 179.8Z" fill="black"/>
<path d="M1566.83 71.3799V289H1500.14V259.36C1493.38 268.98 1484.15 276.78 1472.45 282.76C1461.01 288.48 1448.27 291.34 1434.23 291.34C1417.59 291.34 1402.9 287.7 1390.16 280.42C1377.42 272.88 1367.54 262.09 1360.52 248.05C1353.5 234.01 1349.99 217.5 1349.99 198.52V71.3799H1416.29V189.55C1416.29 204.11 1420.06 215.42 1427.6 223.48C1435.14 231.54 1445.28 235.57 1458.02 235.57C1471.02 235.57 1481.29 231.54 1488.83 223.48C1496.37 215.42 1500.14 204.11 1500.14 189.55V71.3799H1566.83Z" fill="black"/>
<path d="M1238.52 69.0399C1263.48 69.0399 1283.5 77.3599 1298.58 93.9999C1313.66 110.38 1321.2 133 1321.2 161.86V289H1254.9V170.83C1254.9 156.27 1251.13 144.96 1243.59 136.9C1236.05 128.84 1225.91 124.81 1213.17 124.81C1200.43 124.81 1190.29 128.84 1182.75 136.9C1175.21 144.96 1171.44 156.27 1171.44 170.83V289H1104.75V0.399902H1171.44V100.63C1178.2 91.0099 1187.43 83.3399 1199.13 77.6199C1210.83 71.8999 1223.96 69.0399 1238.52 69.0399Z" fill="black"/>
<path d="M971.088 292.12C949.768 292.12 930.528 287.57 913.368 278.47C896.468 269.37 883.078 256.37 873.198 239.47C863.578 222.57 858.768 202.81 858.768 180.19C858.768 157.83 863.708 138.2 873.588 121.3C883.468 104.14 896.988 91.01 914.148 81.91C931.308 72.81 950.548 68.26 971.868 68.26C993.188 68.26 1012.43 72.81 1029.59 81.91C1046.75 91.01 1060.27 104.14 1070.15 121.3C1080.03 138.2 1084.97 157.83 1084.97 180.19C1084.97 202.55 1079.9 222.31 1069.76 239.47C1059.88 256.37 1046.23 269.37 1028.81 278.47C1011.65 287.57 992.408 292.12 971.088 292.12ZM971.088 234.4C983.828 234.4 994.618 229.72 1003.46 220.36C1012.56 211 1017.11 197.61 1017.11 180.19C1017.11 162.77 1012.69 149.38 1003.85 140.02C995.268 130.66 984.608 125.98 971.868 125.98C958.868 125.98 948.078 130.66 939.498 140.02C930.918 149.12 926.628 162.51 926.628 180.19C926.628 197.61 930.788 211 939.108 220.36C947.688 229.72 958.348 234.4 971.088 234.4Z" fill="#FF408C"/>
<path d="M850.481 232.45V289H816.551C792.371 289 773.521 283.15 760.001 271.45C746.481 259.49 739.721 240.12 739.721 213.34V126.76H713.201V71.3801H739.721V18.3401H806.411V71.3801H850.091V126.76H806.411V214.12C806.411 220.62 807.971 225.3 811.091 228.16C814.211 231.02 819.411 232.45 826.691 232.45H850.481Z" fill="black"/>
<path d="M614.598 69.04C640.078 69.04 660.358 77.36 675.438 94C690.778 110.38 698.448 133 698.448 161.86V289H632.148V170.83C632.148 156.27 628.378 144.96 620.838 136.9C613.298 128.84 603.158 124.81 590.418 124.81C577.678 124.81 567.538 128.84 559.998 136.9C552.458 144.96 548.688 156.27 548.688 170.83V289H481.998V71.38H548.688V100.24C555.448 90.62 564.548 83.08 575.988 77.62C587.428 71.9 600.298 69.04 614.598 69.04Z" fill="black"/>
<path d="M348.337 292.12C327.017 292.12 307.777 287.57 290.617 278.47C273.717 269.37 260.327 256.37 250.447 239.47C240.827 222.57 236.017 202.81 236.017 180.19C236.017 157.83 240.957 138.2 250.837 121.3C260.717 104.14 274.237 91.01 291.397 81.91C308.557 72.81 327.797 68.26 349.117 68.26C370.437 68.26 389.677 72.81 406.837 81.91C423.997 91.01 437.517 104.14 447.397 121.3C457.277 138.2 462.217 157.83 462.217 180.19C462.217 202.55 457.147 222.31 447.007 239.47C437.127 256.37 423.477 269.37 406.057 278.47C388.897 287.57 369.657 292.12 348.337 292.12ZM348.337 234.4C361.077 234.4 371.867 229.72 380.707 220.36C389.807 211 394.357 197.61 394.357 180.19C394.357 162.77 389.937 149.38 381.097 140.02C372.517 130.66 361.857 125.98 349.117 125.98C336.117 125.98 325.327 130.66 316.747 140.02C308.167 149.12 303.877 162.51 303.877 180.19C303.877 197.61 308.037 211 316.357 220.36C324.937 229.72 335.597 234.4 348.337 234.4Z" fill="black"/>
<path d="M66.8699 102.19C73.3699 92.05 82.3399 83.86 93.7799 77.62C105.22 71.38 118.61 68.26 133.95 68.26C151.89 68.26 168.14 72.81 182.7 81.91C197.26 91.01 208.7 104.01 217.02 120.91C225.6 137.81 229.89 157.44 229.89 179.8C229.89 202.16 225.6 221.92 217.02 239.08C208.7 255.98 197.26 269.11 182.7 278.47C168.14 287.57 151.89 292.12 133.95 292.12C118.87 292.12 105.48 289 93.7799 282.76C82.3399 276.52 73.3699 268.46 66.8699 258.58V392.74H0.179932V71.38H66.8699V102.19ZM162.03 179.8C162.03 163.16 157.35 150.16 147.99 140.8C138.89 131.18 127.58 126.37 114.06 126.37C100.8 126.37 89.4899 131.18 80.1299 140.8C71.0299 150.42 66.4799 163.55 66.4799 180.19C66.4799 196.83 71.0299 209.96 80.1299 219.58C89.4899 229.2 100.8 234.01 114.06 234.01C127.32 234.01 138.63 229.2 147.99 219.58C157.35 209.7 162.03 196.44 162.03 179.8Z" fill="black"/>
</svg>
